<?xml version="1.0" encoding="UTF-8"?>
<svg version="1.1" xmlns="http://www.w3.org/2000/svg" width="1758" height="1505">
<path d="M0 0 C0.87020505 -0.00175304 1.7404101 -0.00350607 2.636985 -0.00531223 C5.57341819 -0.00999005 8.50980225 -0.0075021 11.44623756 -0.00507832 C13.56495601 -0.00694545 15.6836741 -0.00924576 17.80239165 -0.01194364 C23.64145497 -0.01808126 29.48050401 -0.01792571 35.31956983 -0.01674926 C41.61188622 -0.01654572 47.90419797 -0.02205993 54.19651222 -0.02680683 C66.53722267 -0.03512739 78.87792737 -0.03787536 91.21864025 -0.03841921 C101.26024182 -0.03887883 111.30184185 -0.04093757 121.34344292 -0.04411983 C124.2346702 -0.04501743 127.12589749 -0.04590724 130.01712477 -0.04679471 C130.73595882 -0.04701576 131.45479286 -0.04723681 132.19540976 -0.04746456 C152.42774312 -0.05362245 172.66007594 -0.05756482 192.89241028 -0.05712128 C194.03736177 -0.05709791 194.03736177 -0.05709791 195.2054436 -0.05707407 C199.07401395 -0.05699096 202.9425843 -0.05689192 206.81115465 -0.05678936 C207.96357085 -0.05675944 207.96357085 -0.05675944 209.13926819 -0.05672892 C210.69292185 -0.05668848 212.24657551 -0.05664669 213.80022916 -0.05660353 C237.91511765 -0.05599222 262.02999203 -0.063469 286.14487648 -0.07717609 C313.25750779 -0.09258088 340.37012983 -0.10113946 367.48276579 -0.10021287 C370.38216631 -0.10013825 373.28156682 -0.10008954 376.18096733 -0.10005856 C376.89483059 -0.1000469 377.60869385 -0.10003525 378.34418932 -0.10002324 C389.77499752 -0.09999261 401.20579337 -0.1063477 412.63659791 -0.11499082 C424.16133022 -0.12352355 435.68603845 -0.12424442 447.21077339 -0.1178815 C453.44020356 -0.11463801 459.66958959 -0.1144798 465.89901543 -0.12323475 C525.79248161 -0.20218841 525.79248161 -0.20218841 554.50181007 3.87863445 C555.71852394 4.04782391 556.93523781 4.21701336 558.18882179 4.39132977 C641.12358182 16.37446075 724.46237721 52.90370869 776.50181007 121.12863445 C777.25977882 122.06965008 778.01774757 123.0106657 778.79868507 123.98019695 C813.39158889 167.49674793 833.69581883 220.61433506 842.50181007 275.12863445 C842.68115089 276.23094402 842.86049171 277.33325359 843.04526711 278.46896648 C847.88453052 309.91216464 848.11728772 344.78305824 842.50181007 376.12863445 C842.29781593 377.27316082 842.09382179 378.41768719 841.88364601 379.59689617 C831.1189856 438.20710326 807.60105081 493.03309197 769.50181007 539.12863445 C768.80813332 539.97675701 768.80813332 539.97675701 768.10044289 540.84201336 C761.12570297 549.31947974 753.61186841 557.21728262 745.87681007 565.00363445 C745.01845558 565.87125408 744.16010109 566.73887371 743.27573586 567.63278484 C737.32617008 573.55344723 731.06538404 578.9035594 724.50181007 584.12863445 C723.22389322 585.17713437 721.94760762 586.22762882 720.67368507 587.2809782 C702.29574311 602.30911659 681.88124263 615.02228539 660.43638039 625.20187664 C658.50621136 626.12652601 656.59358656 627.0812951 654.68149757 628.04269695 C616.62375361 646.91805315 573.64406286 656.93331961 531.50181007 661.12863445 C530.4820005 661.23159832 529.46219093 661.33456219 528.41147804 661.44064617 C445.34382599 669.39914833 358.92822092 658.21440248 185.50181007 611.12863445 C184.47398415 610.77152386 184.47398415 610.77152386 183.42539406 610.40719891 C120.95462918 588.69276192 59.11614814 561.4643128 2.50181007 527.12863445 C1.49779152 526.52019695 0.49377296 525.91175945 -0.54067039 525.28488445 C-24.67733165 510.58468156 -47.97713698 494.48858318 -69.49818993 476.12863445 C-70.01284813 475.69309246 -70.52750633 475.25755047 -71.05776024 474.80881023 C-84.7764157 463.10904944 -84.7764157 463.10904944 -85.93568993 453.50363445 C-85.32752967 448.81211251 -84.03741401 445.52355628 -80.49818993 442.31613445 C-76.41279124 439.89042898 -72.61950071 439.98378827 -68.02281761 439.99060345 C-66.87081074 439.98637153 -66.87081074 439.98637153 -65.69553101 439.98205411 C-63.11395275 439.97370033 -60.53241733 439.97236918 -57.95082664 439.97091961 C-56.10294028 439.96625185 -54.25505507 439.96110835 -52.40717125 439.95552349 C-48.42280116 439.94423616 -44.43843858 439.93580494 -40.45405769 439.92940426 C-34.15039087 439.91872815 -27.84677779 439.89848332 -21.54314232 439.8762846 C-3.61607392 439.81435053 14.3109917 439.76037701 32.2381382 439.72726727 C42.13540937 439.70890758 52.03259087 439.67995298 61.9297961 439.63926256 C67.16652218 439.61821207 72.40313532 439.60273808 77.63990593 439.60045528 C82.56965557 439.59830389 87.49917024 439.58238424 92.42884827 439.55606556 C94.23434655 439.54888936 96.03987336 439.54676343 97.84538269 439.55016804 C112.07257402 439.80629435 112.07257402 439.80629435 125.00181007 434.44113445 C127.15957327 431.11458285 127.76517004 428.02050957 127.50181007 424.12863445 C124.29436628 414.98741963 114.7114245 411.10256772 106.45493507 407.0856657 C104.22299151 406.03232114 101.98846702 404.98443332 99.75181007 403.94113445 C97.18976178 402.7282683 94.63215834 401.50626414 92.07602882 400.2809782 C91.40007164 399.95696026 90.72411446 399.63294231 90.02767372 399.29910564 C68.05340017 388.71365872 46.39026048 377.36942834 25.06382179 365.53830242 C22.28374971 364.00865346 19.49037526 362.50570657 16.69321632 361.0075407 C5.35470451 354.93075116 -5.84290165 348.66985383 -16.92836571 342.14206219 C-22.65452488 338.77298916 -28.41426327 335.49420703 -34.24818993 332.31613445 C-43.30225873 327.36099437 -52.09066635 321.97062629 -60.89369774 316.58737469 C-68.2189703 312.10914244 -75.58468495 307.70961205 -82.99818993 303.37863445 C-93.38230695 297.27978862 -103.4658677 290.78687221 -113.49818993 284.12863445 C-114.65561138 283.36313742 -115.81317082 282.59784901 -116.97084618 281.83273602 C-148.12923353 261.23232146 -178.74661058 240.02079194 -207.49818993 216.12863445 C-208.26147606 215.4948991 -208.26147606 215.4948991 -209.04018211 214.84836102 C-216.08014248 208.98957333 -222.94191388 202.97647861 -229.65834618 196.7497282 C-232.28694394 194.3236084 -234.94811837 191.94072996 -237.62318993 189.56613445 C-256.66419085 172.36484376 -256.66419085 172.36484376 -257.93178368 162.88644695 C-258.12133511 157.82025411 -257.9658917 154.13332716 -255.81068993 149.50363445 C-251.49472171 145.07101845 -247.54446908 143.25464883 -241.42425215 143.00147593 C-240.20480512 143.00044411 -238.9853581 142.99941228 -237.72895813 142.99834919 C-237.04572574 142.99640576 -236.36249334 142.99446233 -235.65855694 142.99246001 C-233.358389 142.98712588 -231.05828086 142.98890419 -228.75810814 142.99060345 C-227.09663684 142.98818587 -225.43516614 142.98532375 -223.7736963 142.98205411 C-219.19948008 142.97429123 -214.62527886 142.97268118 -210.05105686 142.97200298 C-205.12117302 142.97016503 -200.19129798 142.96255921 -195.2614193 142.95552349 C-186.71584877 142.94399182 -178.17028022 142.93575072 -169.62470436 142.92940426 C-156.12193815 142.91908616 -142.61919662 142.89852512 -129.11644554 142.8762846 C-124.49869545 142.86880475 -119.88094526 142.86139105 -115.26319504 142.85399723 C-114.10914388 142.85214666 -112.95509272 142.8502961 -111.76607031 142.84838945 C-98.625998 142.82745757 -85.48592296 142.80863108 -72.34584618 142.79074383 C-71.14446429 142.78910565 -69.94308241 142.78746746 -68.70529501 142.78577964 C-49.2291958 142.75948511 -29.75309469 142.74084699 -10.27698524 142.72415192 C9.70859204 142.70674309 29.69413202 142.67791138 49.67967951 142.63926256 C62.01286178 142.61584011 74.34598323 142.60186597 86.67918791 142.59993492 C95.12791466 142.59782866 103.57658087 142.58492557 112.02528046 142.5634556 C116.90292874 142.55140522 121.7804568 142.54428946 126.6581192 142.55016804 C131.12158914 142.55545125 135.58481352 142.54702844 140.04824241 142.52761166 C141.66463245 142.52302513 143.28104639 142.52352157 144.89743166 142.52956004 C147.09221523 142.53702872 149.2861719 142.52611648 151.480896 142.510602 C152.70066773 142.50924547 153.92043946 142.50788894 155.17717397 142.5064913 C159.58795002 142.00519074 162.83342195 140.42467845 166.32212257 137.71457195 C168.62750365 134.61528481 168.60779979 130.88464515 168.50181007 127.12863445 C166.1411847 121.22707102 161.09660185 118.18190626 155.44370461 115.69626141 C154.76162941 115.40581951 154.07955421 115.11537762 153.37681007 114.81613445 C152.62383644 114.48766521 151.87086281 114.15919598 151.09507179 113.82077312 C146.28679174 111.73196038 141.46071483 109.68471061 136.63689613 107.63211346 C35.95613785 64.78837395 35.95613785 64.78837395 -7.37318993 32.75363445 C-8.0215078 32.27788982 -8.66982567 31.8021452 -9.33778954 31.31198406 C-13.82392778 27.91270908 -17.93942913 24.24615605 -20.49818993 19.12863445 C-21.07244077 14.42166029 -20.95373545 11.00718653 -18.74818993 6.75363445 C-13.12692384 0.19549069 -8.33778484 -0.02110529 0 0 Z M475.50181007 109.12863445 C474.55241554 109.32199383 473.60302101 109.5153532 472.62485695 109.71457195 C450.80104807 114.20404121 430.08209887 121.47899166 410.50181007 132.12863445 C409.84277687 132.47893719 409.18374367 132.82923992 408.50473976 133.19015789 C389.97109619 143.05526803 373.70647922 155.68326136 358.50181007 170.12863445 C357.96620461 170.63555828 357.43059914 171.14248211 356.8787632 171.66476727 C316.59556808 210.05594549 292.89623175 265.14898708 291.29868507 320.63644695 C290.50087589 378.0482184 309.8407822 434.35463547 349.21274757 476.65207195 C351.14764223 478.74545628 352.98757913 480.87945653 354.81431007 483.06613445 C368.65338789 498.81844884 386.37977431 511.96534145 404.66098976 522.10470867 C406.55024456 523.15557534 408.41957207 524.2375844 410.29087257 525.3200407 C460.68689045 553.83635711 523.09375343 559.42903466 578.50181007 544.12863445 C623.25860413 531.47734026 664.97299889 505.21608899 693.50181007 468.12863445 C694.12539406 467.32764324 694.12539406 467.32764324 694.7615757 466.51047039 C718.22038191 436.22254503 732.72474021 401.78576846 739.50181007 364.12863445 C739.73513039 362.84730633 739.9684507 361.5659782 740.20884132 360.24582195 C748.81927411 304.86649164 734.86133465 245.08009548 702.06040382 199.5778532 C698.67333836 194.98013475 695.20481459 190.47759919 691.50181007 186.12863445 C690.87661476 185.39257977 690.25141945 184.65652508 689.60727882 183.8981657 C687.2924033 181.25575521 684.91664143 178.6792554 682.50181007 176.12863445 C681.91254738 175.50537273 681.32328468 174.88211102 680.71616554 174.23996258 C670.72866743 163.76436297 660.39572598 154.39110442 648.50181007 146.12863445 C647.77832375 145.62525555 647.05483742 145.12187664 646.30942726 144.60324383 C608.36127494 118.61501468 563.59089691 105.62483389 517.81431007 105.81613445 C516.42092918 105.81936718 516.42092918 105.81936718 514.99939919 105.82266521 C501.60563171 105.87254674 488.62818518 106.25561341 475.50181007 109.12863445 Z " fill="#FF642D" transform="translate(538.4981899261475,420.8713655471802)"/>
<path d="M0 0 C34.70515618 29.54761704 57.00365479 70.34594412 61.08178711 115.97827148 C61.81976973 126.01723656 62.23779687 135.6209875 57.98803711 144.97045898 C52.76219574 150.46429222 45.52413222 152.34673639 38.11230469 152.6940918 C34.61595844 152.73157211 31.12006151 152.76406901 27.62353516 152.77319336 C25.38722902 152.78285447 23.15186067 152.81389183 20.91577148 152.84545898 C11.8684979 152.91218897 3.71775013 152.45355765 -4.32446289 147.90795898 C-10.35560548 141.16727021 -11.45604202 132.32940614 -12.91397095 123.69070435 C-16.90546282 100.37497322 -24.24071404 78.35108715 -40.44946289 60.53295898 C-41.32086914 59.56874023 -42.19227539 58.60452148 -43.09008789 57.61108398 C-62.19942433 37.16543031 -86.93772105 28.45092121 -114.21264648 25.19042969 C-120.81365089 24.31006509 -126.41261119 23.13819431 -131.44946289 18.53295898 C-137.11988188 10.10589048 -136.66034154 1.17958874 -136.69946289 -8.65454102 C-136.72008789 -9.93135742 -136.74071289 -11.20817383 -136.76196289 -12.52368164 C-136.79765818 -21.20209966 -136.67367841 -29.49877577 -131.01196289 -36.46704102 C-98.55380697 -61.80023588 -25.73479273 -21.50157323 0 0 Z " fill="#FF642D" transform="translate(1171.449462890625,619.467041015625)"/>
</svg>
